<svg version="1.1" id="Layer_1" xmlns="http://www.w3.org/2000/svg" xmlns:xlink="http://www.w3.org/1999/xlink" x="0px" y="0px"
	 width="100%" viewBox="0 0 640 640" enable-background="new 0 0 640 640" xml:space="preserve">
<path fill="#000000" opacity="1.000000" stroke="none" 
	d="
M376.663849,345.452118 
	C374.439423,343.655060 373.052216,345.227936 371.504425,346.110870 
	C355.234558,355.392090 337.871948,360.222931 319.002960,359.464630 
	C294.396851,358.475739 274.266571,348.893555 259.349121,329.044189 
	C257.801483,326.984894 256.148132,325.380737 253.603653,324.554352 
	C237.182297,319.221344 225.015671,308.746429 216.382935,293.866302 
	C193.362747,254.186707 196.866196,202.990356 225.090866,166.430664 
	C243.756409,142.252991 267.924377,126.841354 297.754700,120.351891 
	C345.875092,109.883499 397.250793,130.681137 424.761505,171.842148 
	C444.822906,201.857651 449.778442,234.363464 440.358337,269.135986 
	C440.011200,270.417358 439.636780,271.711426 439.087738,272.914062 
	C437.663605,276.033203 435.374420,277.640961 431.871185,276.389526 
	C428.529449,275.195831 427.301788,272.782684 428.065094,269.288116 
	C429.271240,263.766113 431.071442,258.415100 431.916779,252.771179 
	C441.203339,190.768356 394.958008,139.989731 341.406372,131.189880 
	C289.131744,122.599899 238.779419,150.473541 219.956421,200.109695 
	C206.430695,235.777008 211.579788,269.555603 235.089523,300.017365 
	C238.294708,304.170349 242.391083,307.588562 248.230988,309.571381 
	C246.080444,301.472992 243.295776,294.208649 242.345215,286.399780 
	C241.536789,279.758423 241.974915,273.103210 241.153580,266.468781 
	C240.703049,262.829681 239.545135,260.879120 236.235214,259.379517 
	C225.781616,254.643372 219.362106,242.938736 220.905685,232.093628 
	C222.753036,219.114288 230.760452,210.660156 243.212646,208.542206 
	C257.111084,206.178268 269.534790,214.166626 273.328491,227.906525 
	C276.900879,240.844925 269.738892,255.529388 257.013824,260.052277 
	C252.785934,261.554962 252.033340,263.631866 251.991150,267.653992 
	C251.845795,281.511169 254.329910,294.795074 259.480621,307.618195 
	C262.619751,315.433319 264.593597,316.737000 272.843842,316.495239 
	C295.653961,315.826782 314.032135,301.235077 319.736664,279.222809 
	C321.908203,270.843445 320.738617,262.328369 320.656342,253.858902 
	C320.635681,251.732956 319.160645,250.981110 317.472565,250.597870 
	C301.763855,247.031433 291.825775,236.335022 284.126190,223.170410 
	C277.687927,212.162415 273.384247,200.268326 271.324188,187.636383 
	C269.506348,176.489563 275.857330,165.346008 286.573639,161.956116 
	C294.146698,159.560501 301.966949,157.851044 309.770355,156.308182 
	C316.276947,155.021729 319.686340,158.456573 318.938171,165.035782 
	C318.658020,167.499481 318.026337,169.945236 317.330841,172.333939 
	C316.513397,175.141357 314.385437,176.402756 311.571808,175.968582 
	C307.149597,175.286179 302.527130,175.151703 298.570679,172.742722 
	C294.248474,170.111023 290.375977,171.838287 286.930939,174.140778 
	C283.125854,176.683914 280.817963,180.888382 281.744415,185.347046 
	C284.997955,201.005325 290.557678,215.716354 301.451233,227.905350 
	C315.503265,243.628357 334.579376,244.409180 349.666565,229.510529 
	C361.964966,217.365845 368.195831,201.971466 371.349579,185.351456 
	C373.000519,176.651184 361.980713,168.935059 353.820038,172.662308 
	C349.166931,174.787537 344.180878,175.161469 339.277100,176.018845 
	C338.485596,176.157242 337.587189,176.078140 336.812256,175.849060 
	C333.412262,174.843933 331.973145,169.955673 332.779175,162.525360 
	C333.176086,158.866364 334.565216,155.397369 338.697113,155.926956 
	C351.056885,157.511169 363.606934,159.641464 374.050873,166.674927 
	C382.338470,172.256241 383.396973,181.464371 381.332794,190.979965 
	C376.706360,212.307373 367.418488,230.815048 349.559143,244.233383 
	C345.613037,247.198242 341.083405,249.034637 336.363434,249.952286 
	C331.791199,250.841232 331.064270,253.065475 331.525574,257.296661 
	C333.604980,276.370483 329.424194,293.823761 316.391479,308.355865 
	C306.436340,319.456329 293.747742,325.653412 278.844513,327.146240 
	C277.851074,327.245758 276.850952,327.296875 275.865356,327.445984 
	C275.580109,327.489136 275.334625,327.795349 274.802185,328.170105 
	C275.147369,331.029663 277.441254,332.509552 279.491425,334.068573 
	C296.089264,346.690216 314.803589,350.465088 335.176636,347.355957 
	C346.168304,345.678497 356.455017,342.171661 366.009186,336.392059 
	C369.332489,334.381683 370.248505,332.350830 369.448486,328.339325 
	C365.929230,310.693085 376.042572,292.268433 392.440369,285.587067 
	C409.976440,278.441925 429.423309,284.291748 439.614624,299.777588 
	C449.829987,315.300079 446.561005,338.746460 432.488037,350.891724 
	C418.178650,363.241028 395.277466,362.818695 381.153473,349.921844 
	C379.679626,348.576050 378.321381,347.103729 376.663849,345.452118 
M410.688599,294.062714 
	C396.237122,292.111725 382.414429,302.428253 380.398193,316.669922 
	C378.132935,332.670258 388.444885,346.173096 404.720459,348.518311 
	C418.052216,350.439392 432.538452,338.588531 434.578430,324.092224 
	C436.551880,310.068695 425.874908,296.211914 410.688599,294.062714 
M235.590927,224.104279 
	C230.021423,231.850037 229.833618,238.519363 234.999268,245.115829 
	C239.308182,250.618271 246.292252,252.691635 252.281891,250.297272 
	C259.038971,247.596100 263.435059,242.913315 263.776733,235.449661 
	C264.102203,228.340103 260.259277,223.365677 254.083893,220.457397 
	C247.540115,217.375626 241.449600,218.816467 235.590927,224.104279 
z"/>
<path fill="#000000" opacity="1.000000" stroke="none" 
	d="
M152.236008,438.494934 
	C155.464386,452.424866 162.788986,462.340546 176.777695,465.733185 
	C188.533524,468.584351 198.382370,464.497894 206.486710,455.862427 
	C209.875916,452.251129 218.015900,450.221924 222.403885,452.247986 
	C225.888504,453.856964 225.532898,456.603241 224.026474,459.387787 
	C220.639297,465.648834 216.071487,471.017517 210.164505,474.903229 
	C192.869339,486.280273 172.435059,486.021637 155.708282,474.551514 
	C140.332352,464.007751 131.963943,442.233856 136.016251,423.314514 
	C141.936234,395.675385 165.113068,379.255951 192.309799,383.963867 
	C205.391205,386.228363 215.665207,393.375610 222.771072,404.707672 
	C224.329971,407.193695 226.087570,409.973236 224.370895,413.095093 
	C222.586273,416.340454 219.215500,415.700226 216.325836,415.780609 
	C212.189377,415.895599 208.986862,414.553650 206.078156,410.980927 
	C197.742661,400.742828 184.584290,397.291626 173.235580,401.596771 
	C160.394470,406.467987 152.123352,418.670074 151.949173,433.062897 
	C151.929062,434.724762 152.110016,436.389069 152.236008,438.494934 
z"/>
<path fill="#000000" opacity="1.000000" stroke="none" 
	d="
M410.961426,453.208862 
	C398.031433,453.209320 385.595581,453.209320 373.101105,453.209320 
	C373.819611,459.764313 378.860687,465.387909 385.276062,466.565582 
	C392.204773,467.837463 398.849640,467.241333 404.442657,462.097717 
	C407.849762,458.964386 416.822968,460.309174 419.197998,464.141846 
	C420.527100,466.286621 419.179871,467.966309 418.015350,469.576660 
	C403.177002,490.095367 369.947754,486.997620 358.896362,464.077484 
	C350.675262,447.027283 354.717957,426.904572 368.534058,416.104919 
	C379.616730,407.441895 395.300903,406.595093 407.946564,413.977020 
	C418.573090,420.180237 425.940887,435.828278 424.165649,448.346588 
	C423.729736,451.420471 422.209320,453.207397 418.945465,453.193695 
	C416.448914,453.183228 413.952209,453.202423 410.961426,453.208862 
M400.769440,428.645996 
	C389.276123,421.326355 374.382935,426.013916 373.231873,437.418976 
	C384.204437,437.418976 395.158356,437.418976 406.263306,437.418976 
	C405.955566,433.376648 403.582947,431.280487 400.769440,428.645996 
z"/>
<path fill="#000000" opacity="1.000000" stroke="none" 
	d="
M294.095886,462.997498 
	C294.084076,467.993774 294.095886,472.490906 294.053497,476.987518 
	C294.019501,480.595337 292.411438,482.692230 288.543579,482.374390 
	C284.241638,482.020874 278.920105,485.028351 276.517944,478.056183 
	C269.498657,482.526215 262.289490,484.513245 254.355713,482.973022 
	C239.991592,480.184448 230.436722,468.227722 231.248764,452.378479 
	C231.880005,440.057709 230.772217,427.771942 231.485275,415.466217 
	C231.717865,411.452118 232.890854,409.819458 236.996826,409.721802 
	C248.268845,409.453583 248.268311,409.330902 248.277695,420.655884 
	C248.286102,430.816010 248.255356,440.976318 248.303116,451.136261 
	C248.348953,460.888611 252.756165,466.451630 260.636505,466.839874 
	C269.507629,467.276886 276.228180,461.570312 276.803528,452.142731 
	C277.360596,443.014252 277.040833,433.832123 277.102325,424.673553 
	C277.124664,421.342682 277.146667,418.011719 277.149078,414.680817 
	C277.151489,411.360626 278.891144,410.021698 282.111176,409.769928 
	C293.649200,408.867828 294.050079,409.191925 294.048187,420.525024 
	C294.045837,434.516052 294.078491,448.507111 294.095886,462.997498 
z"/>
<path fill="#000000" opacity="1.000000" stroke="none" 
	d="
M495.067596,409.642578 
	C496.383789,409.644592 497.217041,409.642609 498.050293,409.646393 
	C508.770752,409.695038 508.684570,409.692780 508.373322,420.568359 
	C508.266510,424.300476 506.767548,426.156433 502.995392,426.132080 
	C498.662811,426.104126 494.321838,426.299652 489.999512,426.089630 
	C486.260193,425.907990 484.964294,427.500854 485.042023,431.093048 
	C485.193298,438.088684 484.950592,445.093933 485.151855,452.087128 
	C485.404877,460.881104 491.453247,466.627106 500.210449,466.684479 
	C501.705505,466.694275 503.200867,466.488647 504.697662,466.457916 
	C505.678345,466.437775 506.874237,466.209778 507.609467,466.664246 
	C512.284973,469.554321 509.677673,474.183868 509.994110,478.051727 
	C510.214111,480.741119 508.826233,482.937653 505.647888,483.087006 
	C484.124237,484.098633 466.784912,475.227142 467.410034,447.199280 
	C467.744263,432.214020 467.380371,417.213196 467.336456,402.219391 
	C467.327393,399.127045 466.203156,395.114197 469.666870,393.705536 
	C473.948303,391.964325 478.776550,392.175903 483.287537,393.753357 
	C484.424805,394.151062 484.841064,395.453094 484.959381,396.656677 
	C485.073242,397.815094 485.133911,398.984467 485.125092,400.148346 
	C485.042969,410.947693 484.947235,409.480743 495.067596,409.642578 
z"/>
<path fill="#000000" opacity="1.000000" stroke="none" 
	d="
M323.844116,410.777863 
	C324.744537,412.737000 325.345856,414.410767 326.113312,416.546967 
	C331.819946,412.596588 337.689758,409.726685 344.527771,409.278229 
	C349.660980,408.941528 350.878082,409.799652 351.068298,414.807251 
	C351.112549,415.971527 351.106781,417.137939 351.114014,418.303406 
	C351.166656,426.777191 351.165863,426.777161 342.887604,427.236603 
	C332.718079,427.801025 325.526245,436.112579 325.331421,447.831970 
	C325.176483,457.153748 325.295319,466.479950 325.272003,475.804138 
	C325.265320,478.479340 325.527100,481.776794 322.328979,482.510040 
	C318.182404,483.460663 313.719086,484.031708 309.761322,481.576843 
	C308.374542,480.716705 308.655884,478.901520 308.656464,477.408081 
	C308.664642,456.761292 308.725952,436.114349 308.648926,415.467896 
	C308.634125,411.512817 310.023651,409.439423 314.176758,409.773132 
	C317.298615,410.023956 320.506378,409.154205 323.844116,410.777863 
z"/>
<path fill="#000000" opacity="1.000000" stroke="none" 
	d="
M437.160431,414.994690 
	C441.559601,412.105896 446.118713,413.046906 450.536926,413.320557 
	C453.061768,413.476898 454.173523,415.325104 454.171875,417.858398 
	C454.158875,438.000183 454.173798,458.141968 454.162140,478.283752 
	C454.160278,481.532623 452.535706,483.213562 449.220245,483.153107 
	C436.408813,482.919464 436.232483,484.639130 436.507355,471.620667 
	C436.890015,453.499786 436.509216,435.362823 436.481506,417.232727 
	C436.480530,416.591156 436.760529,415.949097 437.160431,414.994690 
z"/>
<path fill="#000000" opacity="1.000000" stroke="none" 
	d="
M234.978149,516.018494 
	C236.290146,514.818970 237.602142,513.619385 239.215576,512.144226 
	C241.055557,515.112366 244.101456,515.627075 247.495499,516.208435 
	C245.795151,519.189941 237.891968,517.725891 242.151718,523.912170 
	C248.428345,522.373169 249.278244,517.571045 248.807404,510.515564 
	C252.881424,515.761414 257.985321,513.811646 261.630096,516.338867 
	C261.902313,516.527649 262.369720,516.891785 262.461945,516.818115 
	C268.592010,511.922821 275.510681,517.542053 281.981903,515.260376 
	C288.135101,513.090881 291.611023,515.843140 292.413818,522.586060 
	C293.658508,520.343567 291.122284,516.628540 294.882751,515.691589 
	C297.391266,515.066589 300.132324,514.114807 302.714600,515.403320 
	C304.777679,516.432861 306.465210,515.635376 308.403168,515.060974 
	C315.406769,512.985291 320.019775,517.458984 318.320740,524.524841 
	C317.524109,527.837952 314.799744,527.425415 312.332520,527.697021 
	C309.153778,528.047058 306.229523,528.037292 304.943695,524.374451 
	C304.617126,523.444214 304.767334,522.312683 304.331696,521.461365 
	C303.330383,519.504578 301.440887,518.615173 299.369354,518.712524 
	C297.144928,518.817017 296.933105,520.776123 296.978760,522.447815 
	C297.087769,526.439026 295.617767,527.801880 291.341187,527.725891 
	C287.180969,527.651917 283.051666,528.152954 279.056427,526.648376 
	C277.439026,526.039246 276.193420,526.863831 274.777679,527.322876 
	C271.870758,528.265198 268.544922,528.978149 266.099976,527.089417 
	C263.815247,525.324402 262.454987,526.460876 260.959167,527.478821 
	C258.368225,526.139771 259.003784,523.923950 258.869232,522.037537 
	C258.722107,519.974609 258.122406,518.380310 255.729279,518.383362 
	C253.532211,518.386169 252.513626,519.684448 252.136734,521.777893 
	C251.796936,523.665405 252.428070,525.855896 250.647079,527.324219 
	C248.642670,527.436340 248.793427,525.737671 248.331863,524.301025 
	C247.797363,524.771240 247.405273,525.008240 247.158981,525.350281 
	C245.497604,527.656982 243.311264,528.393127 240.589615,527.645203 
	C237.837479,526.888794 237.062469,524.756042 237.050720,522.273743 
	C237.040741,520.163696 236.143845,518.423828 235.116516,516.314575 
	C235.000977,515.979736 234.978149,516.018494 234.978149,516.018494 
M272.336670,524.000610 
	C273.928162,521.698120 278.499817,523.880005 279.232513,519.152893 
	C276.753143,520.160828 274.857117,520.336670 272.892975,518.861267 
	C271.393372,517.734863 269.381592,517.877014 267.837463,519.221008 
	C266.773682,520.146851 266.290680,521.443115 266.983673,522.798096 
	C268.022644,524.829468 269.822815,524.759888 272.336670,524.000610 
z"/>
<path fill="#000000" opacity="1.000000" stroke="none" 
	d="
M417.904114,521.191895 
	C415.906403,521.299500 414.196686,520.830872 411.877319,522.756348 
	C415.649628,524.709229 419.048859,524.366333 422.149628,523.619385 
	C424.540344,523.043579 425.565735,521.088501 424.911530,518.175903 
	C424.357941,515.711365 426.977783,515.411438 428.640045,515.109314 
	C431.987518,514.500793 435.387756,514.441589 437.449371,517.919922 
	C438.095612,519.010315 438.329620,520.345032 439.079712,521.662903 
	C438.858307,519.101929 438.732208,516.699280 441.639069,515.579468 
	C444.953796,514.302490 448.388000,514.116089 451.235168,516.106018 
	C454.083588,518.096741 452.397247,521.635071 452.610321,524.410706 
	C452.787384,526.717041 450.278290,527.728149 448.193604,527.321228 
	C440.506195,525.820862 432.901459,528.591919 425.087891,527.306396 
	C421.126251,526.654602 416.529022,526.986694 412.299377,527.614014 
	C408.487885,528.179260 407.760040,526.544495 407.683411,523.217224 
	C407.400452,510.931641 410.498260,508.729675 423.723755,512.411011 
	C423.275330,515.574280 420.815826,514.805298 418.856262,514.995178 
	C416.847168,515.190002 414.576447,514.332275 412.709686,516.290771 
	C415.679016,519.587830 420.529541,515.713745 423.189362,519.273438 
	C422.078033,521.595154 420.049194,520.993713 417.904114,521.191895 
z"/>
<path fill="#000000" opacity="1.000000" stroke="none" 
	d="
M373.779175,527.613159 
	C369.713226,525.169128 366.246643,528.332520 362.606262,527.996887 
	C359.405029,527.701660 354.664459,528.857605 354.468445,524.610840 
	C354.341217,521.854370 353.092041,516.879883 357.596649,515.359497 
	C361.754028,513.956299 365.866028,514.246826 368.456604,519.199402 
	C370.578674,512.140686 379.380829,517.596741 381.638458,511.310181 
	C384.735748,512.717651 382.664856,515.542053 384.125427,517.407288 
	C386.919373,515.440247 389.874969,513.713745 393.511444,515.114990 
	C395.032440,515.701111 396.654297,515.981384 397.449951,517.819336 
	C398.791595,520.918335 397.907745,526.067444 395.640594,527.176208 
	C390.774597,529.555908 385.976288,527.555237 383.576447,521.881409 
	C383.363007,523.679260 383.184235,525.185059 382.981598,526.891785 
	C380.006195,527.524841 377.138367,528.179504 373.779175,527.613159 
M373.628448,518.923035 
	C371.891846,520.984558 371.753326,522.813660 374.660065,523.768494 
	C376.238586,524.286987 377.942535,524.169556 379.145477,522.717163 
	C379.813812,521.910217 379.967163,520.870789 379.463196,519.956970 
	C378.241730,517.742432 376.202698,518.268066 373.628448,518.923035 
z"/>
<path fill="#000000" opacity="1.000000" stroke="none" 
	d="
M439.362305,385.136169 
	C444.636078,382.517212 449.424591,382.668427 453.527100,386.519135 
	C457.252655,390.015991 457.071777,394.730042 455.832550,399.087860 
	C454.664764,403.194458 451.400879,405.704803 447.032684,406.113678 
	C442.378479,406.549286 438.405823,404.802277 435.903900,400.871887 
	C433.395813,396.931885 433.554230,392.648285 436.050110,388.646332 
	C436.823975,387.405457 438.033325,386.436157 439.362305,385.136169 
z"/>
<path fill="#000000" opacity="1.000000" stroke="none" 
	d="
M213.206879,516.820801 
	C214.633316,518.530334 214.085556,520.299927 214.553497,522.436768 
	C217.356308,519.604492 220.968048,519.841797 224.852280,519.429321 
	C221.964203,516.963379 219.371384,519.851196 216.618240,518.695435 
	C216.320511,515.513367 218.821152,514.938232 220.925064,514.694885 
	C223.938278,514.346252 227.071548,514.683777 228.529358,517.994934 
	C229.752502,520.773010 230.752808,524.523193 228.839813,526.501282 
	C226.449738,528.972595 222.050598,528.902161 219.002533,527.509583 
	C215.937332,526.109070 213.785477,526.597351 210.861496,527.527039 
	C203.934433,529.729492 199.892136,526.485168 200.741150,520.012634 
	C201.447495,514.627869 205.799515,513.387451 213.206879,516.820801 
z"/>
<path fill="#000000" opacity="1.000000" stroke="none" 
	d="
M344.691040,523.740967 
	C340.909424,528.928040 340.143280,528.923523 336.772583,523.988647 
	C335.741058,522.478394 334.703064,520.972229 333.641022,519.483459 
	C333.458160,519.227173 333.139160,519.067993 332.690643,518.710693 
	C331.156525,521.411377 333.422333,525.297913 329.633301,528.185730 
	C327.804413,522.658569 328.051758,517.649658 329.160492,513.037292 
	C329.864044,510.110504 332.563599,511.292969 334.053192,513.347351 
	C336.165771,516.260925 338.152832,519.265442 340.617554,522.847351 
	C342.863647,519.712585 344.739685,517.222656 346.469574,514.635010 
	C347.638092,512.887207 348.838593,511.135681 351.215240,511.989380 
	C353.410400,512.777954 353.197601,515.021973 352.984192,516.723389 
	C352.526764,520.369751 354.784973,524.620789 350.999176,527.938477 
	C347.661041,525.567627 350.456268,521.829895 348.150848,519.290405 
	C347.054352,520.699463 345.977875,522.082825 344.691040,523.740967 
z"/>
<path fill="#000000" opacity="1.000000" stroke="none" 
	d="
M184.887115,516.348267 
	C187.619446,518.555786 190.529877,517.515137 193.260864,517.606018 
	C197.345490,517.742065 194.147644,512.118591 198.516434,511.541138 
	C199.634216,516.799866 200.521149,521.970703 198.768875,527.119141 
	C196.831650,527.482788 196.337463,526.645325 196.014023,525.650391 
	C194.737717,521.724121 189.794556,519.668030 186.191559,521.554565 
	C184.820175,522.272644 184.504089,523.476562 184.454117,524.870300 
	C184.409851,526.104736 184.106369,527.327332 182.604813,527.311584 
	C181.056641,527.295349 180.819534,525.979065 180.861160,524.792419 
	C181.014206,520.428284 180.023926,515.887512 181.815521,511.568787 
	C184.931656,512.528076 184.027176,514.648499 184.887115,516.348267 
z"/>
<path fill="#000000" opacity="1.000000" stroke="none" 
	d="
M463.433594,518.258179 
	C464.407166,516.236938 465.502502,515.238831 467.465851,516.310730 
	C465.818970,525.772156 461.215851,531.503052 455.822327,530.103638 
	C461.406616,524.742920 453.752289,521.004272 454.198730,515.919678 
	C458.648224,515.088257 458.200470,519.648193 460.422546,521.204773 
	C462.505310,521.662537 462.542603,519.725220 463.433594,518.258179 
z"/>
<path fill="#000000" opacity="1.000000" stroke="none" 
	d="
M235.008820,515.958496 
	C233.094696,519.414062 235.777039,523.874451 232.816696,527.299133 
	C230.120636,524.217529 229.941238,515.709900 232.326859,511.645416 
	C234.806686,511.752991 234.197388,513.961060 234.896118,515.673401 
	C234.978149,516.018494 235.000977,515.979736 235.008820,515.958496 
z"/>
<path fill="#000000" opacity="1.000000" stroke="none" 
	d="
M422.669861,327.220245 
	C421.231140,327.315308 420.215668,327.477570 419.237671,327.350800 
	C414.621613,326.752380 412.813904,328.732697 413.274811,333.315033 
	C413.691040,337.453400 412.750885,340.567261 407.489136,340.428009 
	C402.036438,340.283722 400.492401,339.290161 400.829926,333.707672 
	C401.144379,328.507782 399.168396,326.771820 394.231506,327.336853 
	C389.939972,327.827972 387.663391,325.985962 387.757568,321.370575 
	C387.852814,316.701630 390.122101,314.491669 394.632507,315.005219 
	C399.524811,315.562256 401.331787,313.630554 400.772705,308.835022 
	C400.256561,304.407928 402.593048,302.309540 406.897766,302.336792 
	C410.991333,302.362671 413.859314,303.998383 413.292694,308.599365 
	C412.655762,313.771393 414.767090,315.503601 419.760071,314.989990 
	C422.463379,314.711945 425.441254,315.251953 425.936005,318.653320 
	C426.394165,321.803284 427.471130,325.473694 422.669861,327.220245 
z"/>
<path fill="#000000" opacity="1.000000" stroke="none" 
	d="
M243.293762,228.041840 
	C250.038330,225.820297 254.296509,227.606644 255.456451,232.843506 
	C256.408112,237.140045 254.895081,240.451462 250.962402,242.347000 
	C247.118759,244.199615 243.734207,242.924210 241.213287,239.777908 
	C238.495209,236.385513 239.281021,232.067703 243.293762,228.041840 
z"/>
</svg>